<svg id="Layer_1" data-name="Layer 1" xmlns="http://www.w3.org/2000/svg" viewBox="0 0 24 24" stroke-width="1.5" width="200" height="200" color="#FFFFFF"><defs><style>.cls-637b715ef95e86b59c579e75-1{fill:none;stroke:currentColor;stroke-miterlimit:10;}</style></defs><path class="cls-637b715ef95e86b59c579e75-1" d="M13,22.5,7.82,17.36a2,2,0,0,1-.59-1.43,2,2,0,0,1,2-2,2,2,0,0,1,1.43.59L12,15.82V6.38a2,2,0,0,1,1.74-2,1.87,1.87,0,0,1,1.51.56,1.83,1.83,0,0,1,.57,1.34V12l5,.72a1.91,1.91,0,0,1,1.64,1.89h0a17.18,17.18,0,0,1-1.82,7.71l-.09.18"></path><polyline class="cls-637b715ef95e86b59c579e75-1" points="5.32 10.09 1.5 10.09 1.5 6.27"></polyline><polyline class="cls-637b715ef95e86b59c579e75-1" points="6.27 1.5 10.09 1.5 10.09 5.32"></polyline><line class="cls-637b715ef95e86b59c579e75-1" x1="5.32" y1="6.27" x2="1.5" y2="10.09"></line><line class="cls-637b715ef95e86b59c579e75-1" x1="6.27" y1="5.32" x2="10.09" y2="1.5"></line></svg>